<svg width="16.9999" height="21.0865" viewBox="0 0 16.9999 21.0865" fill="none" xmlns="http://www.w3.org/2000/svg">
<g id="Container">
<path id="Icon" d="M0 21.0865V0H1.49996V2.04808H15.5V0H16.9999V21.0865H15.5V19.0384H1.49996V21.0865H0V21.0865M1.49996 9.53843H3.80768V5.65382H9.19225V9.53843H15.5V3.54804H1.49996V9.53843V9.53843M1.49996 17.5384H7.80768V13.6538H13.1922V17.5384H15.5V11.0384H1.49996V17.5384V17.5384M5.30764 9.53843H7.69229V7.15378H5.30764V9.53843V9.53843M9.30764 17.5384H11.6923V15.1538H9.30764V17.5384V17.5384M5.30764 9.53843V9.53843H7.69229V9.53843H5.30764V9.53843M9.30764 17.5384V17.5384H11.6923V17.5384H9.30764V17.5384" fill="#44403C"/>
</g>
</svg>
