<svg width="46.9999" height="50.7499" viewBox="0 0 46.9999 50.7499" fill="none" xmlns="http://www.w3.org/2000/svg">
<g id="Overlay+Border">
<rect width="46.9999" height="50.7499" rx="23.5" fill="var(--fill-0, white)" fill-opacity="0.2"/>
<rect x="0.5" y="0.5" width="45.9999" height="49.7499" rx="23" stroke="var(--stroke-0, white)" stroke-opacity="0.4"/>
<path id="Icon" d="M17 33.7499V18.8077C17 18.3026 17.175 17.875 17.525 17.525C17.875 17.175 18.3026 17 18.8077 17H28.1922C28.6974 17 29.1249 17.175 29.4749 17.525C29.8249 17.875 29.9999 18.3026 29.9999 18.8077V33.7499L23.5 30.9615L17 33.7499V33.7499M18.5 31.45L23.5 29.3L28.5 31.45V18.8077C28.5 18.7307 28.4679 18.6602 28.4038 18.5961C28.3397 18.532 28.2692 18.5 28.1922 18.5H18.8077C18.7307 18.5 18.6602 18.532 18.5961 18.5961C18.532 18.6602 18.5 18.7307 18.5 18.8077V31.45V31.45M18.5 18.5V18.5C18.5 18.5 18.532 18.5 18.5961 18.5C18.6602 18.5 18.7307 18.5 18.8077 18.5H28.1922C28.2692 18.5 28.3397 18.5 28.4038 18.5C28.4679 18.5 28.5 18.5 28.5 18.5V18.5H23.5H18.5V18.5" fill="#7E5541"/>
</g>
</svg>
