<svg width="52" height="52" viewBox="0 0 51.8075 52.423" fill="none" xmlns="http://www.w3.org/2000/svg">
<rect width="51.8075" height="52.423" rx="25.9038" fill="#FFF1F2" fill-opacity="0.5"/>
<path d="M32.4037 22.8076L31.3461 20.4615L28.9999 19.4038L31.3461 18.3461L32.4037 16L33.4614 18.3461L35.8075 19.4038L33.4614 20.4615L32.4037 22.8076M32.4037 36.423L31.3461 34.0768L28.9999 33.0192L31.3461 31.9615L32.4037 29.6154L33.4614 31.9615L35.8075 33.0192L33.4614 34.0768L32.4037 36.423M22.7884 32.9999L20.673 28.3268L16 26.2115L20.673 24.0961L22.7884 19.4231L24.9037 24.0961L29.5767 26.2115L24.9037 28.3268L22.7884 32.9999M22.7884 29.3615L23.7884 27.2115L25.9384 26.2115L23.7884 25.2115L22.7884 23.0615L21.7884 25.2115L19.6384 26.2115L21.7884 27.2115L22.7884 29.3615" fill="#292524"/>
</svg>
