<svg width="23.7499" height="11.3461" viewBox="0 0 23.7499 11.3461" fill="none" xmlns="http://www.w3.org/2000/svg">
<g id="Container">
<path id="Icon" d="M10.3846 11.3461H5.67303C4.1035 11.3461 2.7656 10.793 1.65936 9.6869C0.553121 8.5808 0 7.24307 0 5.67371C0 4.10436 0.553121 2.76641 1.65936 1.65984C2.7656 0.553281 4.1035 0 5.67303 0H10.3846V1.87495H5.67303C4.62335 1.87495 3.72792 2.24555 2.98673 2.98673C2.24555 3.72792 1.87495 4.62335 1.87495 5.67303C1.87495 6.72271 2.24555 7.61815 2.98673 8.35933C3.72792 9.10052 4.62335 9.47112 5.67303 9.47112H10.3846V11.3461V11.3461M7.18748 6.61051V4.73556H16.5624V6.61051H7.18748V6.61051M13.3654 11.3461V9.47112H18.0769C19.1266 9.47112 20.022 9.10052 20.7632 8.35933C21.5044 7.61815 21.875 6.72271 21.875 5.67303C21.875 4.62335 21.5044 3.72792 20.7632 2.98673C20.022 2.24555 19.1266 1.87495 18.0769 1.87495H13.3654V0H18.0769C19.6464 0 20.9843 0.553055 22.0905 1.65916C23.1968 2.76527 23.7499 4.103 23.7499 5.67235C23.7499 7.24171 23.1968 8.57966 22.0905 9.68623C20.9843 10.7928 19.6464 11.3461 18.0769 11.3461H13.3654V11.3461" fill="#635C61"/>
</g>
</svg>
