<svg width="20.923" height="18.6845" viewBox="0 0 20.923 18.6845" fill="none" xmlns="http://www.w3.org/2000/svg">
<g id="Container">
<path id="Icon" d="M14.2346 9.78841L13.1115 8.66536C13.2615 7.83715 13.0253 7.0926 12.4028 6.4317C11.7804 5.7708 11.0166 5.51536 10.1115 5.66536L8.98845 4.5423C9.21408 4.44102 9.44549 4.36506 9.68266 4.31442C9.91984 4.26378 10.1795 4.23846 10.4615 4.23846C11.5961 4.23846 12.5592 4.63429 13.3509 5.42596C14.1426 6.21762 14.5384 7.18075 14.5384 8.31536C14.5384 8.5974 14.5131 8.86022 14.4624 9.10381C14.4118 9.34739 14.3358 9.57559 14.2346 9.78841V9.78841M17.4153 12.8999L16.3115 11.8654C16.9448 11.382 17.5073 10.8529 17.999 10.2779C18.4907 9.70286 18.9115 9.04869 19.2615 8.31536C18.4282 6.63202 17.2323 5.29452 15.674 4.30286C14.1157 3.31119 12.3782 2.81536 10.4615 2.81536C9.97817 2.81536 9.50317 2.84869 9.0365 2.91536C8.56983 2.98202 8.1115 3.08202 7.6615 3.21536L6.49614 2.05C7.12819 1.79872 7.7737 1.61347 8.43267 1.49424C9.09164 1.37501 9.76792 1.31539 10.4615 1.31539C12.8051 1.31539 14.9185 1.96154 16.8019 3.25384C18.6852 4.54614 20.0589 6.23331 20.923 8.31536C20.5525 9.20894 20.074 10.0429 19.4874 10.8173C18.9009 11.5916 18.2102 12.2858 17.4153 12.8999V12.8999M18.223 18.6845L14.1769 14.6692C13.6641 14.8589 13.0958 15.014 12.4721 15.1345C11.8484 15.2551 11.1782 15.3153 10.4615 15.3153C8.11151 15.3153 5.99806 14.6692 4.12114 13.3769C2.24423 12.0846 0.870512 10.3974 0 8.31536C0.369232 7.43202 0.846158 6.60798 1.43078 5.84324C2.0154 5.0785 2.65899 4.41536 3.36155 3.85382L0.592322 1.05382L1.64614 0L19.2769 17.6307L18.223 18.6845V18.6845M4.41537 4.90764C3.88717 5.32815 3.37338 5.8336 2.87401 6.42399C2.37465 7.01438 1.97048 7.64484 1.6615 8.31536C2.49483 9.99869 3.69067 11.3362 5.249 12.3279C6.80733 13.3195 8.54483 13.8154 10.4615 13.8154C10.9166 13.8154 11.3699 13.7769 11.8211 13.7C12.2724 13.623 12.6551 13.5436 12.9692 13.4615L11.7038 12.1653C11.5333 12.2346 11.3359 12.2897 11.1115 12.3307C10.8871 12.3717 10.6705 12.3922 10.4615 12.3922C9.32689 12.3922 8.36376 11.9964 7.5721 11.2048C6.78044 10.4131 6.38461 9.44996 6.38461 8.31536C6.38461 8.11279 6.40512 7.90093 6.44615 7.67977C6.48717 7.45861 6.5423 7.25637 6.61154 7.07303L4.41537 4.90764V4.90764M11.9865 7.54036V7.54036V7.54036V7.54036V7.54036V7.54036V7.54036V7.54036V7.54036M8.6923 9.18457V9.18457V9.18457V9.18457V9.18457V9.18457V9.18457V9.18457V9.18457" fill="#6A7077"/>
</g>
</svg>
