<svg width="11.5544" height="11.9134" viewBox="0 0 11.5544 11.9134" fill="none" xmlns="http://www.w3.org/2000/svg">
<path id="Icon" opacity="0.4" d="M9.56884 3.9711L8.95186 2.60253L7.58329 1.98555L8.95186 1.36857L9.56884 0L10.1858 1.36857L11.5544 1.98555L10.1858 2.60253L9.56884 3.9711V3.9711M9.56884 11.9134L8.95186 10.5448L7.58329 9.92784L8.95186 9.31086L9.56884 7.94229L10.1858 9.31086L11.5544 9.92784L10.1858 10.5448L9.56884 11.9134V11.9134M3.95988 9.91658L2.72593 7.19066L0 5.9567L2.72593 4.72274L3.95988 1.99681L5.19384 4.72274L7.91977 5.9567L5.19384 7.19066L3.95988 9.91658V9.91658M3.95988 7.7942L4.54322 6.54003L5.79738 5.9567L4.54322 5.37336L3.95988 4.1192L3.37655 5.37336L2.12238 5.9567L3.37655 6.54003L3.95988 7.7942V7.7942M3.95988 5.9567V5.9567V5.9567V5.9567V5.9567V5.9567V5.9567V5.9567V5.9567V5.9567" fill="#7E5541"/>
</svg>
