<svg width="51" height="51" viewBox="0 0 50.9999 50.9999" fill="none" xmlns="http://www.w3.org/2000/svg">
<path d="M24.75 30.2499H26.2499V26.2499H30.2499V24.75H26.2499V20.75H24.75V24.75H20.75V26.2499H24.75V30.2499M25.5016 34.9999C24.1877 34.9999 22.9527 34.7506 21.7965 34.2519C20.6404 33.7533 19.6347 33.0765 18.7795 32.2217C17.9243 31.3668 17.2472 30.3616 16.7483 29.206C16.2494 28.0503 16 26.8156 16 25.5016C16 24.1877 16.2493 22.9527 16.748 21.7965C17.2467 20.6404 17.9234 19.6347 18.7783 18.7795C19.6331 17.9243 20.6383 17.2472 21.794 16.7483C22.9496 16.2494 24.1844 16 25.4983 16C26.8122 16 28.0473 16.2493 29.2034 16.748C30.3595 17.2467 31.3652 17.9234 32.2204 18.7783C33.0757 19.6331 33.7527 20.6383 34.2516 21.794C34.7505 22.9496 34.9999 24.1844 34.9999 25.4983C34.9999 26.8122 34.7506 28.0473 34.2519 29.2034C33.7533 30.3595 33.0765 31.3652 32.2217 32.2204C31.3668 33.0757 30.3616 33.7527 29.206 34.2516C28.0503 34.7505 26.8156 34.9999 25.5016 34.9999M25.5 33.5C27.7333 33.5 29.625 32.725 31.175 31.175C32.725 29.625 33.5 27.7333 33.5 25.5C33.5 23.2666 32.725 21.375 31.175 19.825C29.625 18.275 27.7333 17.5 25.5 17.5C23.2666 17.5 21.375 18.275 19.825 19.825C18.275 21.375 17.5 23.2666 17.5 25.5C17.5 27.7333 18.275 29.625 19.825 31.175C21.375 32.725 23.2666 33.5 25.5 33.5" fill="#A8A29E"/>
</svg>
